<?xml version="1.0" standalone="no"?>
<!DOCTYPE svg PUBLIC "-//W3C//DTD SVG 1.1//EN" "http://www.w3.org/Graphics/SVG/1.1/DTD/svg11.dtd" >
<!--
2013-9-30: Created.
-->
<svg>
<metadata>
Created by iconfont
</metadata>
<defs>

<font id="iconfont" horiz-adv-x="1024" >
  <font-face
    font-family="iconfont"
    font-weight="500"
    font-stretch="normal"
    units-per-em="1024"
    ascent="896"
    descent="-128"
  />
    <missing-glyph />
    
    <glyph glyph-name="zhaodai" unicode="&#58905;" d="M64 697.6c-19.2 0-25.6-19.2-25.6-25.6v-153.6c0-179.2 128-332.8 288-332.8h364.8c160 0 288 153.6 288 332.8V672c0 19.2-19.2 25.6-25.6 25.6H64zM774.4 51.200000000000045H243.2c-19.2 0-25.6 6.4-25.6 25.6v25.6c0 19.2 6.4 25.6 25.6 25.6h531.2c19.2 0 25.6-6.4 25.6-25.6v-25.6c0-6.4-6.4-25.6-25.6-25.6z"  horiz-adv-x="1024" />

    
    <glyph glyph-name="-" unicode="&#58906;" d="M665.6 473.6c6.4 0 25.6 32 134.4 89.6 32 12.8 57.6 25.6 89.6 25.6 38.4 0 83.2-12.8 102.4-44.8 12.8-12.8 6.4-44.8-25.6-70.4 0 0-377.6-236.8-627.2-364.8-12.8-6.4-38.4-12.8-51.2-12.8-32 0-51.2-6.4-83.2 0-25.6 0-38.4 0-51.2 12.8L19.2 230.39999999999998c-6.4 6.4-6.4 12.8-6.4 32 0 6.4 6.4 25.6 12.8 32 12.8 12.8 38.4 25.6 57.6 12.8 44.8-12.8 115.2-25.6 160-51.2h6.4l121.6 51.2 294.4 166.4zM377.6 300.79999999999995c6.4 6.4 12.8 12.8 0 25.6L153.6 435.2c-12.8 6.4-19.2 6.4-19.2 25.6 0 6.4 0 12.8 6.4 25.6 19.2 6.4 32 19.2 38.4 25.6 12.8 12.8 32 25.6 51.2 25.6l422.4-57.6 19.2-6.4-294.4-172.8z"  horiz-adv-x="1024" />

    
    <glyph glyph-name="qianbao" unicode="&#58907;" d="M953.6 755.2H70.4c-19.2 0-32-12.8-32-32V128c0-19.2 12.8-32 32-32h876.8c19.2 0 32 12.8 32 32V710.4c6.4 25.6-12.8 44.8-25.6 44.8z m-768-582.4h-38.4c-12.8 0-19.2 12.8-19.2 19.2 0 12.8 12.8 19.2 19.2 19.2H192c12.8 0 19.2-12.8 19.2-19.2 0-12.8-12.8-19.2-25.6-19.2z m121.6 0h-44.8c-12.8 0-19.2 12.8-19.2 19.2 0 12.8 12.8 19.2 19.2 19.2h44.8c12.8 0 19.2-12.8 19.2-19.2 0-12.8-6.4-19.2-19.2-19.2zM985.6 531.2h-204.8c-51.2 0-108.8-44.8-108.8-108.8 0-51.2 44.8-108.8 108.8-108.8h204.8V531.2zM780.8 422.4m-32 0a32 32 0 1 1 64 0 32 32 0 1 1-64 0Z"  horiz-adv-x="1024" />

    
    <glyph glyph-name="saoma" unicode="&#58908;" d="M281.6 870.4h-192c-12.8 0-25.6-12.8-25.6-25.6v-179.2c0-12.8 12.8-25.6 25.6-25.6s25.6 12.8 25.6 25.6V812.8h160c12.8 0 25.6 12.8 25.6 25.6S294.4 870.4 281.6 870.4zM928 870.4h-179.2c-12.8 0-25.6-12.8-25.6-25.6s12.8-25.6 25.6-25.6h160v-160c0-12.8 12.8-25.6 25.6-25.6s25.6 12.8 25.6 25.6V844.8c-6.4 12.8-19.2 25.6-32 25.6zM928 204.79999999999995c-12.8 0-25.6-12.8-25.6-25.6v-160h-160c-12.8 0-25.6-12.8-25.6-25.6s12.8-25.6 25.6-25.6h179.2c12.8 0 25.6 12.8 25.6 25.6v179.2c6.4 19.2-6.4 32-19.2 32zM275.2 19.200000000000045H121.6v160c0 12.8-12.8 25.6-25.6 25.6s-32-12.8-32-25.6V0c0-12.8 12.8-25.6 25.6-25.6h179.2c12.8 0 25.6 6.4 25.6 25.6 0 12.8-12.8 19.2-19.2 19.2zM198.4 723.2v-620.8H832V723.2H198.4z m512-339.2H320c-25.6 0-38.4 12.8-38.4 38.4s12.8 38.4 38.4 38.4h390.4c25.6 0 38.4-12.8 38.4-38.4s-25.6-38.4-38.4-38.4z"  horiz-adv-x="1024" />

    
    <glyph glyph-name="jianzhu" unicode="&#58909;" d="M704 870.4H313.6C256 870.4 192 819.2 192 748.8v-838.4c0-12.8 12.8-32 19.2-32h582.4c12.8 0 19.2 12.8 19.2 19.2V748.8c12.8 64-32 121.6-108.8 121.6zM492.8 57.60000000000002c0-12.8-12.8-19.2-19.2-19.2h-128c-12.8 0-19.2 12.8-19.2 19.2v19.2c0 12.8 12.8 19.2 19.2 19.2h121.6c12.8 0 19.2-12.8 19.2-19.2v-19.2h6.4z m0 198.4c0-12.8-12.8-19.2-19.2-19.2h-128c-12.8 0-19.2 12.8-19.2 19.2v19.2c0 12.8 12.8 19.2 19.2 19.2h121.6c12.8 0 19.2-12.8 19.2-19.2v-19.2h6.4z m0 204.8c0-12.8-12.8-19.2-19.2-19.2h-128c-12.8-6.4-19.2 6.4-19.2 19.2v19.2c0 12.8 12.8 19.2 19.2 19.2h121.6c12.8 0 19.2-12.8 19.2-19.2v-19.2h6.4z m0 198.4c0-6.4-6.4-19.2-19.2-19.2h-128c-12.8 0-19.2 12.8-19.2 19.2v19.2c0 12.8 12.8 19.2 19.2 19.2h121.6c12.8 0 19.2-12.8 19.2-19.2v-19.2h6.4z"  horiz-adv-x="1024" />

    
    <glyph glyph-name="yongche" unicode="&#58910;" d="M608 736H403.2l12.8 38.4c0 6.4 6.4 6.4 12.8 6.4h134.4c6.4 0 12.8 0 12.8-6.4l32-38.4zM806.4 691.2c-6.4 25.6-32 44.8-64 44.8H268.8c-32 0-57.6-12.8-64-44.8L134.4 473.6h748.8l-76.8 217.6z m-19.2-198.4H230.4c-25.6 0-32 25.6-32 38.4l44.8 128c6.4 25.6 32 38.4 64 38.4H704c32 0 57.6-12.8 64-38.4l44.8-128c6.4-12.8-6.4-38.4-25.6-38.4zM140.8 76.79999999999995v-44.8c0-6.4 12.8-12.8 32-12.8h57.6c12.8 0 32 6.4 32 12.8v44.8H140.8zM742.4 76.79999999999995v-44.8c0-6.4 12.8-12.8 32-12.8h57.6c12.8 0 32 6.4 32 12.8v44.8h-121.6zM889.6 473.6H115.2c-44.8 0-96-38.4-96-96v-204.8c0-44.8 38.4-96 96-96h774.4c44.8 0 96 38.4 96 96V377.6c0 57.6-38.4 96-96 96z m-704-230.4c-32 0-64 25.6-64 57.6s25.6 57.6 57.6 57.6 57.6-25.6 57.6-57.6c6.4-32-19.2-57.6-51.2-57.6z m467.2 0H364.8c-32 0-64 25.6-64 57.6s25.6 57.6 57.6 57.6H640c32 0 57.6-25.6 57.6-57.6 6.4-32-19.2-57.6-44.8-57.6z m172.8 0c-32 0-57.6 25.6-57.6 57.6s25.6 57.6 57.6 57.6 57.6-25.6 57.6-57.6-25.6-57.6-57.6-57.6z"  horiz-adv-x="1024" />

    
    <glyph glyph-name="daiban" unicode="&#58911;" d="M710.4 364.79999999999995C576 364.79999999999995 467.2 256 467.2 128s108.8-243.2 243.2-243.2 243.2 108.8 243.2 243.2c-12.8 128-115.2 236.8-243.2 236.8z m89.6-275.2h-121.6c-12.8 0-19.2 12.8-19.2 19.2v121.6c0 12.8 12.8 19.2 19.2 19.2 12.8 0 19.2-12.8 19.2-19.2v-108.8h108.8c12.8 0 19.2 0 19.2-19.2 6.4-19.2-19.2-12.8-25.6-12.8zM467.2 128c0 128 108.8 243.2 243.2 243.2 38.4 0 70.4-12.8 102.4-19.2V806.4c0 32-32 57.6-57.6 57.6H147.2c-32 0-57.6-32-57.6-57.6v-729.6c0-32 32-57.6 57.6-57.6h352c-19.2 38.4-32 70.4-32 108.8zM217.6 697.6h390.4c19.2 0 32-12.8 32-32s-12.8-25.6-32-25.6H217.6c-19.2 0-32 6.4-32 25.6s12.8 32 32 32z m83.2-467.2H217.6c-19.2 0-32 12.8-32 32s12.8 32 32 32h83.2c19.2-6.4 25.6-19.2 25.6-38.4s-6.4-25.6-25.6-25.6z m89.6 198.4H217.6c-19.2 0-32 12.8-32 32s12.8 32 32 32h172.8c19.2 0 32-12.8 32-32-6.4-25.6-12.8-32-32-32z"  horiz-adv-x="1024" />

    
    <glyph glyph-name="mulu" unicode="&#58912;" d="M832 870.4H192c-51.2 0-83.2-38.4-83.2-89.6v-800c0-51.2 38.4-83.2 83.2-83.2h640c51.2 0 83.2 38.4 83.2 83.2V780.8c0 51.2-32 89.6-83.2 89.6zM256 153.60000000000002c-12.8 0-25.6 12.8-25.6 25.6s12.8 25.6 25.6 25.6 25.6-12.8 25.6-25.6-12.8-25.6-25.6-25.6z m0 224c-25.6 0-38.4 12.8-38.4 25.6s12.8 25.6 25.6 25.6 25.6-12.8 25.6-25.6 0-25.6-12.8-25.6z m0 224c-12.8 0-25.6 12.8-25.6 25.6s12.8 25.6 25.6 25.6 25.6-12.8 25.6-25.6-12.8-25.6-25.6-25.6z m524.8-448H416c-12.8 0-38.4 12.8-38.4 38.4 0 12.8 12.8 38.4 38.4 38.4h371.2c12.8 0 38.4-12.8 38.4-38.4-6.4-25.6-19.2-38.4-44.8-38.4z m0 224H416c-25.6 0-38.4 12.8-38.4 25.6s12.8 38.4 38.4 38.4h371.2c12.8 0 38.4-12.8 38.4-38.4-6.4-25.6-19.2-25.6-44.8-25.6z m0 224H416c-12.8 0-38.4 12.8-38.4 38.4 0 12.8 12.8 38.4 38.4 38.4h371.2c12.8 0 38.4-12.8 38.4-38.4s-19.2-38.4-44.8-38.4z"  horiz-adv-x="1024" />

    
    <glyph glyph-name="shouji" unicode="&#58913;" d="M723.2 819.2H300.8c-32 0-51.2-19.2-51.2-51.2v-768c0-25.6 25.6-51.2 51.2-51.2h428.8c25.6 0 51.2 25.6 51.2 51.2V768c-6.4 32-25.6 51.2-57.6 51.2z m-243.2-32h64c6.4 0 6.4-6.4 6.4-6.4s0-12.8-6.4-12.8h-64c-6.4 0-12.8 6.4-12.8 6.4s6.4 12.8 12.8 12.8zM512-12.799999999999955c-19.2 0-38.4 19.2-38.4 38.4s19.2 38.4 38.4 38.4 38.4-19.2 38.4-38.4c0-25.6-19.2-38.4-38.4-38.4z m204.8 115.2H307.2v640h409.6v-640z"  horiz-adv-x="1024" />

    
    <glyph glyph-name="fapiao" unicode="&#58914;" d="M928 819.2H83.2c-19.2 0-32-25.6-32-44.8v-371.2c0-19.2 19.2-44.8 44.8-44.8h844.8c19.2 0 44.8 19.2 44.8 44.8V774.4c0 19.2-12.8 44.8-57.6 44.8z m-108.8-281.6H192c-32 0-51.2 19.2-51.2 51.2s19.2 57.6 51.2 57.6h627.2c32 0 51.2-19.2 51.2-51.2s-19.2-57.6-51.2-57.6zM217.6 588.8v-550.4c0-44.8 44.8-89.6 89.6-89.6h422.4c44.8 0 89.6 44.8 89.6 89.6V588.8H217.6z m364.8-435.2h-256c-12.8 0-32 12.8-32 19.2s12.8 19.2 19.2 19.2H576c12.8 0 19.2-12.8 19.2-19.2 12.8-6.4 0-19.2-12.8-19.2z m108.8 134.4H326.4c-12.8 0-32 12.8-32 19.2s12.8 19.2 19.2 19.2h371.2c6.4 6.4 19.2-6.4 19.2-19.2 19.2-12.8 0-19.2-12.8-19.2z"  horiz-adv-x="1024" />

    
    <glyph glyph-name="shenqing" unicode="&#58915;" d="M729.6 390.4L620.8 499.2 889.6 768H102.4C57.6 768 25.6 736 25.6 691.2v-614.4c0-44.8 32-76.8 76.8-76.8h819.2c44.8 0 76.8 32 76.8 76.8V659.2l-268.8-268.8zM595.2 467.2c0 12.8 12.8 12.8 12.8 0L697.6 384v-12.8l-108.8-12.8s-12.8 0-12.8 12.8l19.2 96zM166.4 627.2h236.8c19.2 0 32-12.8 32-32s-12.8-32-32-32H166.4c-19.2 0-32 12.8-32 32 0 12.8 25.6 32 32 32z m0-204.8h236.8c19.2 0 32-12.8 32-32s-12.8-32-32-32H166.4c-12.8 0-32 12.8-32 32s25.6 32 32 32z m659.2-275.2H166.4c-19.2 0-32 12.8-32 32s12.8 32 32 32h659.2c19.2 0 32-12.8 32-32 0-25.6-12.8-32-32-32z"  horiz-adv-x="1024" />

    
    <glyph glyph-name="zhishi" unicode="&#58916;" d="M262.4 70.39999999999998h595.2c12.8 0 25.6 12.8 25.6 25.6V755.2c0 57.6-38.4 102.4-96 108.8v-204.8c0-19.2-19.2-25.6-32-19.2l-64 38.4c-6.4 6.4-12.8 6.4-19.2 0l-64-38.4c-12.8-6.4-32 0-32 19.2V857.6 870.4H249.6c-57.6 0-108.8-51.2-108.8-108.8v-736c0-57.6 51.2-108.8 108.8-108.8h569.6c19.2 0 38.4 6.4 51.2 12.8 25.6 12.8 12.8 51.2-12.8 51.2H256c-32 0-51.2 25.6-51.2 57.6 6.4 19.2 32 32 57.6 32z"  horiz-adv-x="1024" />

    
    <glyph glyph-name="wenjianjia" unicode="&#58917;" d="M576 627.2h313.6c12.8 0 19.2 12.8 19.2 25.6V729.6c0 12.8-6.4 25.6-19.2 25.6H518.4c-19.2 0-25.6-25.6-12.8-38.4l57.6-83.2c0-6.4 6.4-6.4 12.8-6.4zM902.4 576H576c-12.8 0-32 6.4-38.4 25.6L409.6 768c-12.8 12.8-25.6 19.2-44.8 19.2H128c-32 0-57.6-32-57.6-64v-627.2c0-38.4 25.6-64 57.6-64h774.4c32 0 57.6 32 57.6 64V512c0 38.4-25.6 64-57.6 64z m-268.8-352c0-19.2-12.8-32-32-32H204.8c-19.2 0-32 12.8-32 32s12.8 32 32 32h403.2c12.8 0 25.6-12.8 25.6-32z m166.4 0c0-19.2-12.8-32-32-32h-25.6c-19.2 0-32 12.8-32 32s12.8 32 32 32h25.6c19.2 0 32-12.8 32-32z"  horiz-adv-x="1024" />

    
    <glyph glyph-name="wendang" unicode="&#58918;" d="M768 569.6c-70.4 0-134.4 57.6-134.4 134.4V806.4c0 6.4-6.4 19.2-19.2 19.2h-384c-51.2 0-89.6-38.4-89.6-89.6v-697.6c0-51.2 38.4-89.6 89.6-89.6h556.8c51.2 0 89.6 38.4 89.6 89.6V556.8c0 6.4-6.4 19.2-19.2 19.2H768z m-19.2-467.2H275.2c-6.4 0-19.2 6.4-19.2 19.2v12.8c0 6.4 6.4 19.2 19.2 19.2h467.2c6.4 0 19.2-6.4 19.2-19.2v-12.8c0-12.8-6.4-19.2-12.8-19.2z m0 153.6H275.2c-6.4 0-19.2 6.4-19.2 19.2v12.8c0 6.4 6.4 19.2 19.2 19.2h467.2c6.4 0 19.2-6.4 19.2-19.2v-12.8c0-12.8-6.4-19.2-12.8-19.2z m0 153.6H275.2c-6.4 0-19.2 6.4-19.2 19.2v6.4c0 6.4 6.4 19.2 19.2 19.2h467.2c6.4 0 19.2-6.4 19.2-19.2v-12.8c0-6.4-6.4-12.8-12.8-12.8z m12.8 0M678.4 768v-57.6c0-51.2 38.4-89.6 89.6-89.6h57.6c19.2 0 32 25.6 12.8 38.4l-128 128c-6.4 12.8-32 0-32-19.2z m0 51.2"  horiz-adv-x="1024" />

    
    <glyph glyph-name="xinwen" unicode="&#58919;" d="M928 672h-57.6v-646.4H601.6c0-38.4 25.6-70.4 57.6-70.4h268.8c32 0 57.6 32 57.6 70.4v576c0 38.4-25.6 70.4-57.6 70.4z m0 0M768 819.2H166.4c-32 0-57.6-32-57.6-70.4v-723.2c0-38.4 25.6-70.4 57.6-70.4H768c32 0 57.6 32 57.6 70.4V742.4c-6.4 44.8-32 76.8-57.6 76.8zM224 633.6h217.6v-217.6H224V633.6z m435.2-499.2H224v70.4h435.2v-70.4z m0 140.8H224V345.6h435.2v-70.4z m0 147.2H492.8V492.8h160l6.4-70.4z m0 140.8H492.8V633.6h160l6.4-70.4z m0 0"  horiz-adv-x="1024" />

    
    <glyph glyph-name="tianxie" unicode="&#58920;" d="M883.2 704L601.6 428.8h-6.4L499.2 524.8v6.4L806.4 838.4c6.4 6.4 0 12.8-6.4 12.8h-576C172.8 851.2 128 806.4 128 755.2v-748.8c0-51.2 44.8-96 96-96h569.6c51.2 0 96 44.8 96 96V697.6c0 6.4-6.4 12.8-6.4 6.4zM467.2 486.4c0 6.4 6.4 6.4 12.8 6.4l83.2-83.2c6.4-6.4 0-12.8-6.4-12.8L460.8 384c-6.4 0-6.4 0-6.4 6.4l12.8 96z m38.4-428.8h-256c-19.2 0-32 12.8-32 32s12.8 32 32 32h256c19.2 0 32-12.8 32-32 0-12.8-19.2-32-32-32z m224 153.6H243.2c-19.2 0-32 12.8-32 32s12.8 32 32 32h486.4c19.2 0 32-12.8 32-32s-12.8-32-32-32z"  horiz-adv-x="1024" />

    
    <glyph glyph-name="richeng" unicode="&#58921;" d="M300.8 627.2c-25.6 0-44.8 25.6-44.8 51.2V819.2c0 25.6 19.2 51.2 51.2 51.2 25.6 0 51.2-19.2 51.2-51.2v-140.8c-6.4-25.6-25.6-51.2-57.6-51.2zM736 627.2c-25.6 0-51.2 19.2-51.2 51.2V819.2c0 25.6 19.2 51.2 51.2 51.2 25.6 0 51.2-19.2 51.2-51.2v-140.8c0-25.6-25.6-51.2-51.2-51.2zM883.2 793.6h-83.2v-115.2c0-38.4-32-64-64-64-38.4 0-64 32-64 64V793.6H371.2v-115.2c0-38.4-32-64-64-64s-64 32-64 64V793.6H160c-51.2 0-89.6-38.4-89.6-89.6v-160h902.4V704c0 51.2-38.4 89.6-89.6 89.6zM70.4 492.8v-396.8c0-51.2 38.4-89.6 89.6-89.6h723.2c51.2 0 89.6 38.4 89.6 89.6V492.8H70.4zM768 128H275.2c-19.2 0-32 12.8-32 32 0 12.8 12.8 32 32 32H768c19.2 0 32-12.8 32-32-6.4-19.2-19.2-32-32-32z m25.6 217.6c0-19.2-12.8-32-32-32H275.2c-19.2 0-32 12.8-32 32s12.8 32 32 32H768c12.8-6.4 25.6-19.2 25.6-32z"  horiz-adv-x="1024" />

    
    <glyph glyph-name="wenjian" unicode="&#58922;" d="M851.2 864H198.4c-38.4 0-64-25.6-64-64v-844.8c0-32 32-64 64-64h409.6c38.4 0 64 25.6 64 64v134.4c0 32 32 64 64 64h108.8c38.4 0 64 25.6 64 64V806.4c12.8 32-19.2 57.6-57.6 57.6zM640 339.20000000000005c0-19.2-12.8-32-32-32H320c-19.2 0-32 12.8-32 32v6.4c0 19.2 12.8 32 32 32h288c19.2 0 32-12.8 32-38.4zM780.8 512c0-19.2-12.8-32-32-32H320c-19.2 6.4-38.4 19.2-38.4 32v6.4c0 19.2 12.8 32 32 32h428.8c25.6 0 38.4-12.8 38.4-38.4z m0 172.8c0-19.2-12.8-32-32-32H320c-19.2 0-32 12.8-32 32v6.4c0 19.2 12.8 32 32 32h428.8c19.2 0 32-12.8 32-38.4zM716.8 44.799999999999955v-89.6c0-32 38.4-44.8 57.6-25.6l128 128c19.2 19.2 6.4 57.6-25.6 57.6h-89.6c-38.4 0-70.4-32-70.4-70.4z"  horiz-adv-x="1024" />

    
    <glyph glyph-name="shouye" unicode="&#58923;" d="M908.8 563.2L550.4 851.2C518.4 876.8 467.2 876.8 435.2 851.2L83.2 563.2c-25.6-19.2-38.4-44.8-38.4-70.4V0c0-51.2 44.8-96 96-96h160v268.8c0 108.8 89.6 192 192 192 108.8 0 192-89.6 192-192v-268.8h160c51.2 0 96 44.8 96 96V492.8c0 25.6-12.8 51.2-32 70.4z"  horiz-adv-x="1024" />

    
    <glyph glyph-name="xiaoxi" unicode="&#58924;" d="M800 793.6H281.6c-96 0-179.2-83.2-179.2-179.2V256c0-96 83.2-179.2 179.2-179.2h19.2s0-6.4 6.4-6.4l70.4-76.8c12.8-12.8 32-12.8 38.4 0l64 70.4 6.4 6.4h313.6c96 0 179.2 83.2 179.2 179.2V614.4c0 96-83.2 179.2-179.2 179.2zM294.4 364.79999999999995c-38.4 0-64 32-64 70.4 0 38.4 32 70.4 70.4 70.4 38.4 0 70.4-32 70.4-70.4-6.4-38.4-38.4-70.4-76.8-70.4z m243.2 0c-38.4 0-70.4 32-70.4 70.4 0 38.4 32 70.4 70.4 70.4 38.4 0 70.4-32 70.4-70.4 0-38.4-32-70.4-70.4-70.4z m249.6 0c-38.4 0-70.4 32-70.4 70.4 0 38.4 32 70.4 70.4 70.4 38.4 0 70.4-32 70.4-70.4-6.4-38.4-38.4-70.4-70.4-70.4z"  horiz-adv-x="1024" />

    


  </font>
</defs>
</svg>
